<?xml version="1.0" encoding="UTF-8" standalone="no"?>
<!DOCTYPE svg PUBLIC "-//W3C//DTD SVG 1.1//EN" "http://www.w3.org/Graphics/SVG/1.1/DTD/svg11.dtd">
<svg width="100%" height="100%" viewBox="0 0 64 64" version="1.1" xmlns="http://www.w3.org/2000/svg" xmlns:xlink="http://www.w3.org/1999/xlink" xml:space="preserve" xmlns:serif="http://www.serif.com/" style="fill-rule:evenodd;clip-rule:evenodd;stroke-linejoin:round;stroke-miterlimit:2;">
    <g transform="matrix(0.215836,0,0,0.215836,14.6851,15.1338)">
        <g transform="matrix(1.10246,0,0,1.10246,-53.1149,-48.0541)">
            <path d="M88.551,43.191L88.551,62.632L69.113,62.632L69.113,82.069L49.672,82.069L49.672,114.458L43.198,114.458L43.198,120.94L49.672,120.94L49.672,120.948L56.169,120.948L56.169,146.859L43.198,146.859L43.198,153.337L49.672,153.337L49.672,185.726L192.212,185.726L192.212,153.337L198.693,153.337L198.693,146.859L185.745,146.859L185.715,120.948L198.693,120.948L198.693,114.458L192.212,114.458L192.212,82.069L172.774,82.069L172.774,62.632L153.341,62.632L153.341,43.191L88.551,43.191Z" style="fill:rgb(51,51,51);fill-rule:nonzero;"/>
        </g>
        <g transform="matrix(4.16667,0,0,4.16667,-53.1149,-48.0541)">
            <path d="M18.288,49.147L19.997,49.147L19.997,42.28L18.292,42.28L18.288,49.147ZM23.428,49.147L25.14,49.147L25.14,42.28L23.432,42.28L23.428,49.147ZM44.003,49.147L45.712,49.147L45.712,42.28L44.003,42.28L44.003,49.147ZM38.856,49.147L40.568,49.147L40.568,42.28L38.856,42.28L38.856,49.147ZM33.716,49.147L35.432,49.147L35.432,42.28L33.712,42.28L33.716,49.147ZM28.568,49.147L30.288,49.147L30.288,42.28L28.568,42.28L28.568,49.147Z" style="fill:url(#_Linear1);fill-rule:nonzero;"/>
        </g>
    </g>
    <defs>
        <linearGradient id="_Linear1" x1="0" y1="0" x2="1" y2="0" gradientUnits="userSpaceOnUse" gradientTransform="matrix(4.20503e-16,-6.86733,6.86733,4.20503e-16,26.8598,49.2662)"><stop offset="0" style="stop-color:white;stop-opacity:0.8"/><stop offset="1" style="stop-color:white;stop-opacity:0"/></linearGradient>
    </defs>
</svg>
