<?xml version="1.0" encoding="UTF-8" standalone="no"?>
<!DOCTYPE svg PUBLIC "-//W3C//DTD SVG 1.1//EN" "http://www.w3.org/Graphics/SVG/1.1/DTD/svg11.dtd">
<svg width="100%" height="100%" viewBox="0 0 64 64" version="1.1" xmlns="http://www.w3.org/2000/svg" xmlns:xlink="http://www.w3.org/1999/xlink" xml:space="preserve" xmlns:serif="http://www.serif.com/" style="fill-rule:evenodd;clip-rule:evenodd;stroke-linejoin:round;stroke-miterlimit:2;">
    <g transform="matrix(1.09524,0,0,1.09524,-3.04762,-3.04762)">
        <g transform="matrix(0.537227,0,0,0.537227,6.21778,5.53507)">
            <path d="M28.447,31.468L67.536,31.468L67.536,48.97L56.786,61.255L56.786,68.073L39.196,68.073L39.196,61.255L28.447,48.97L28.447,31.468ZM53.855,39.311L42.128,39.311L42.128,42.243L53.855,42.243L53.855,39.311ZM53.855,47.178L42.128,47.178L42.128,50.11L53.855,50.11L53.855,47.178Z"/>
        </g>
        <g transform="matrix(0.537227,0,0,0.537227,6.21778,5.53507)">
            <path d="M34.211,31.468L31.378,31.468L31.378,18.96L64.604,18.96L64.604,31.468L61.586,31.468L61.586,21.719L58.654,21.719L58.654,31.468L37.142,31.468L37.142,21.719L34.211,21.719L34.211,31.468ZM58.654,31.468L61.586,31.468L61.586,31.491L58.654,31.491L58.654,31.468ZM34.211,31.468L37.142,31.468L37.142,31.491L34.211,31.491L34.211,31.468ZM53.796,25.112L50.822,25.112L50.822,28.086L53.796,28.086L53.796,25.112ZM44.979,25.112L42.005,25.112L42.005,28.086L44.979,28.086L44.979,25.112ZM41.639,68.073L54.343,68.073L54.343,79.564L41.639,79.564L41.639,68.073Z" style="fill:rgb(158,158,158);"/>
        </g>
    </g>
</svg>
