<?xml version="1.0" encoding="UTF-8" standalone="no"?>
<!DOCTYPE svg PUBLIC "-//W3C//DTD SVG 1.1//EN" "http://www.w3.org/Graphics/SVG/1.1/DTD/svg11.dtd">
<svg width="100%" height="100%" viewBox="0 0 64 64" version="1.1" xmlns="http://www.w3.org/2000/svg" xmlns:xlink="http://www.w3.org/1999/xlink" xml:space="preserve" xmlns:serif="http://www.serif.com/" style="fill-rule:evenodd;clip-rule:evenodd;stroke-linejoin:round;stroke-miterlimit:2;">
    <path d="M64,0L64,64.001L-0,64.001L-0,0L64,0ZM32,9.5C19.535,9.5 9.5,19.535 9.5,32C9.5,44.465 19.535,54.5 32,54.5C44.465,54.5 54.5,44.465 54.5,32C54.5,19.535 44.465,9.5 32,9.5Z" style="fill:white;"/>
    <path d="M35.75,35.75L18.875,45.125L28.25,28.25L45.125,18.875L35.75,35.75ZM33.875,32C33.875,30.972 33.028,30.125 32,30.125C30.972,30.125 30.125,30.972 30.125,32C30.125,33.028 30.972,33.875 32,33.875C33.028,33.875 33.875,33.028 33.875,32Z"/>
    <path d="M13.25,31.063L13.25,32.938L9.5,32.938L9.5,31.063L13.25,31.063ZM54.5,31.063L54.5,32.938L50.75,32.938L50.75,31.063L54.5,31.063ZM32.938,54.5L31.063,54.5L31.063,50.75L32.938,50.75L32.938,54.5ZM32.938,9.5L32.938,13.25L31.063,13.25L31.063,9.5L32.938,9.5Z"/>
</svg>
