<?xml version="1.0" encoding="UTF-8" standalone="no"?>
<!DOCTYPE svg PUBLIC "-//W3C//DTD SVG 1.1//EN" "http://www.w3.org/Graphics/SVG/1.1/DTD/svg11.dtd">
<svg width="100%" height="100%" viewBox="0 0 64 64" version="1.1" xmlns="http://www.w3.org/2000/svg" xmlns:xlink="http://www.w3.org/1999/xlink" xml:space="preserve" xmlns:serif="http://www.serif.com/" style="fill-rule:evenodd;clip-rule:evenodd;stroke-linejoin:round;stroke-miterlimit:2;">
    <g transform="matrix(2.52457,0,0,1.58159,-19.5482,-1.56556)">
        <rect x="7.743" y="0.99" width="25.351" height="40.466" style="fill:white;"/>
    </g>
    <g transform="matrix(0.249824,0,0,0.249824,-1.30939,-1.31251)">
        <g transform="matrix(4.16667,0,0,4.16667,0,0)">
            <path d="M28.559,13.159L35.851,13.159C35.852,13.159 35.853,13.159 35.854,13.159C36.644,13.159 37.294,13.809 37.294,14.599C37.294,14.6 37.294,14.601 37.294,14.602L37.294,21.428C37.294,21.429 37.294,21.43 37.294,21.431C37.294,22.221 36.644,22.871 35.854,22.871C35.853,22.871 35.852,22.871 35.851,22.871L28.559,22.871C28.558,22.871 28.557,22.871 28.556,22.871C27.766,22.871 27.116,22.221 27.116,21.431C27.116,21.43 27.116,21.429 27.116,21.428L27.116,14.602C27.116,13.802 27.76,13.159 28.559,13.159" style="fill:rgb(244,198,72);fill-rule:nonzero;"/>
        </g>
        <g transform="matrix(4.16667,0,0,4.16667,0,0)">
            <path d="M14.229,13.159L21.521,13.159C21.522,13.159 21.523,13.159 21.524,13.159C22.314,13.159 22.964,13.809 22.964,14.599C22.964,14.6 22.964,14.601 22.964,14.602L22.964,21.428C22.964,21.429 22.964,21.43 22.964,21.431C22.964,22.221 22.314,22.871 21.524,22.871C21.523,22.871 21.522,22.871 21.521,22.871L14.229,22.871C14.228,22.871 14.227,22.871 14.226,22.871C13.436,22.871 12.786,22.221 12.786,21.431C12.786,21.43 12.786,21.429 12.786,21.428L12.786,14.602C12.786,13.802 13.43,13.159 14.229,13.159" style="fill:rgb(132,231,102);fill-rule:nonzero;"/>
        </g>
        <g transform="matrix(4.16667,0,0,4.16667,0,0)">
            <path d="M42.478,13.159L49.77,13.159C49.771,13.159 49.772,13.159 49.773,13.159C50.563,13.159 51.213,13.809 51.213,14.599C51.213,14.6 51.213,14.601 51.213,14.602L51.213,21.428C51.213,21.429 51.213,21.43 51.213,21.431C51.213,22.221 50.563,22.871 49.773,22.871C49.772,22.871 49.771,22.871 49.77,22.871L42.478,22.871C42.477,22.871 42.476,22.871 42.475,22.871C41.685,22.871 41.035,22.221 41.035,21.431C41.035,21.43 41.035,21.429 41.035,21.428L41.035,14.602C41.035,13.802 41.679,13.159 42.478,13.159" style="fill:rgb(233,147,62);fill-rule:nonzero;"/>
        </g>
        <g transform="matrix(4.16667,0,0,4.16667,0,0)">
            <path d="M14.229,27.143L21.521,27.143C21.522,27.143 21.523,27.143 21.524,27.143C22.314,27.143 22.964,27.793 22.964,28.583C22.964,28.584 22.964,28.585 22.964,28.586L22.964,35.412C22.964,35.413 22.964,35.414 22.964,35.415C22.964,36.205 22.314,36.855 21.524,36.855C21.523,36.855 21.522,36.855 21.521,36.855L14.229,36.855C14.228,36.855 14.227,36.855 14.226,36.855C13.436,36.855 12.786,36.205 12.786,35.415C12.786,35.414 12.786,35.413 12.786,35.412L12.786,28.586C12.786,27.786 13.43,27.143 14.229,27.143" style="fill:rgb(214,65,48);fill-rule:nonzero;"/>
        </g>
        <g transform="matrix(4.16667,0,0,4.16667,0,0)">
            <path d="M28.559,27.143L35.851,27.143C35.852,27.143 35.853,27.143 35.854,27.143C36.644,27.143 37.294,27.793 37.294,28.583C37.294,28.584 37.294,28.585 37.294,28.586L37.294,35.412C37.294,35.413 37.294,35.414 37.294,35.415C37.294,36.205 36.644,36.855 35.854,36.855C35.853,36.855 35.852,36.855 35.851,36.855L28.559,36.855C28.558,36.855 28.557,36.855 28.556,36.855C27.766,36.855 27.116,36.205 27.116,35.415C27.116,35.414 27.116,35.413 27.116,35.412L27.116,28.586C27.116,27.786 27.76,27.143 28.559,27.143" style="fill:rgb(183,190,193);fill-rule:nonzero;"/>
        </g>
        <g transform="matrix(4.16667,0,0,4.16667,0,0)">
            <path d="M42.478,27.143L49.77,27.143C49.771,27.143 49.772,27.143 49.773,27.143C50.563,27.143 51.213,27.793 51.213,28.583C51.213,28.584 51.213,28.585 51.213,28.586L51.213,35.412C51.213,35.413 51.213,35.414 51.213,35.415C51.213,36.205 50.563,36.855 49.773,36.855C49.772,36.855 49.771,36.855 49.77,36.855L42.478,36.855C42.477,36.855 42.476,36.855 42.475,36.855C41.685,36.855 41.035,36.205 41.035,35.415C41.035,35.414 41.035,35.413 41.035,35.412L41.035,28.586C41.035,27.786 41.679,27.143 42.478,27.143" style="fill:rgb(233,91,108);fill-rule:nonzero;"/>
        </g>
        <g transform="matrix(4.16667,0,0,4.16667,0,0)">
            <path d="M14.229,41.134L21.521,41.134C21.522,41.134 21.523,41.134 21.524,41.134C22.314,41.134 22.964,41.784 22.964,42.574C22.964,42.575 22.964,42.576 22.964,42.577L22.964,49.403C22.964,49.404 22.964,49.405 22.964,49.406C22.964,50.196 22.314,50.846 21.524,50.846C21.523,50.846 21.522,50.846 21.521,50.846L14.229,50.846C14.228,50.846 14.227,50.846 14.226,50.846C13.436,50.846 12.786,50.196 12.786,49.406C12.786,49.405 12.786,49.404 12.786,49.403L12.786,42.577C12.786,41.777 13.43,41.134 14.229,41.134" style="fill:rgb(148,82,202);fill-rule:nonzero;"/>
        </g>
        <g transform="matrix(4.16667,0,0,4.16667,0,0)">
            <path d="M28.559,41.134L35.851,41.134C35.852,41.134 35.853,41.134 35.854,41.134C36.644,41.134 37.294,41.784 37.294,42.574C37.294,42.575 37.294,42.576 37.294,42.577L37.294,49.403C37.294,49.404 37.294,49.405 37.294,49.406C37.294,50.196 36.644,50.846 35.854,50.846C35.853,50.846 35.852,50.846 35.851,50.846L28.559,50.846C28.558,50.846 28.557,50.846 28.556,50.846C27.766,50.846 27.116,50.196 27.116,49.406C27.116,49.405 27.116,49.404 27.116,49.403L27.116,42.577C27.116,41.777 27.76,41.134 28.559,41.134" style="fill:rgb(74,159,237);fill-rule:nonzero;"/>
        </g>
        <g transform="matrix(4.16667,0,0,4.16667,0,0)">
            <path d="M42.478,41.134L49.77,41.134C49.771,41.134 49.772,41.134 49.773,41.134C50.563,41.134 51.213,41.784 51.213,42.574C51.213,42.575 51.213,42.576 51.213,42.577L51.213,49.403C51.213,49.404 51.213,49.405 51.213,49.406C51.213,50.196 50.563,50.846 49.773,50.846C49.772,50.846 49.771,50.846 49.77,50.846L42.478,50.846C42.477,50.846 42.476,50.846 42.475,50.846C41.685,50.846 41.035,50.196 41.035,49.406C41.035,49.405 41.035,49.404 41.035,49.403L41.035,42.577C41.035,41.777 41.679,41.134 42.478,41.134" style="fill:rgb(110,209,179);fill-rule:nonzero;"/>
        </g>
    </g>
</svg>
