<?xml version="1.0" encoding="UTF-8" standalone="no"?>
<!DOCTYPE svg PUBLIC "-//W3C//DTD SVG 1.1//EN" "http://www.w3.org/Graphics/SVG/1.1/DTD/svg11.dtd">
<svg width="100%" height="100%" viewBox="0 0 64 64" version="1.1" xmlns="http://www.w3.org/2000/svg" xmlns:xlink="http://www.w3.org/1999/xlink" xml:space="preserve" xmlns:serif="http://www.serif.com/" style="fill-rule:evenodd;clip-rule:evenodd;stroke-linejoin:round;stroke-miterlimit:2;">
    <path d="M32,19.399C24.446,19.399 17.867,21.729 14.45,25.726C15.777,22.139 18.168,19.044 21.307,16.859C24.446,14.673 28.179,13.5 32,13.5C35.821,13.5 39.554,14.673 42.693,16.859C45.832,19.044 48.223,22.139 49.55,25.726C46.133,21.736 39.525,19.399 32,19.399ZM32,44.601C39.525,44.601 46.133,42.264 49.55,38.274C48.223,41.861 45.832,44.956 42.693,47.141C39.554,49.327 35.821,50.5 32,50.5C28.179,50.5 24.446,49.327 21.307,47.141C18.168,44.956 15.777,41.861 14.45,38.274C17.867,42.271 24.446,44.601 32,44.601Z"/>
</svg>
