<?xml version="1.0" encoding="UTF-8" standalone="no"?>
<!DOCTYPE svg PUBLIC "-//W3C//DTD SVG 1.1//EN" "http://www.w3.org/Graphics/SVG/1.1/DTD/svg11.dtd">
<svg width="100%" height="100%" viewBox="0 0 64 64" version="1.1" xmlns="http://www.w3.org/2000/svg" xmlns:xlink="http://www.w3.org/1999/xlink" xml:space="preserve" xmlns:serif="http://www.serif.com/" style="fill-rule:evenodd;clip-rule:evenodd;stroke-linejoin:round;stroke-miterlimit:2;">
    <g transform="matrix(1.28571,0,0,1.28571,-24.1009,-23.2942)">
        <g transform="matrix(1.09381,0,0,1.09381,-6.68314,-7.31055)">
            <circle cx="46.002" cy="46.002" r="15.999" style="fill:rgb(102,102,102);"/>
        </g>
        <g transform="matrix(1.09381,0,0,1.09381,-6.68314,-7.31055)">
            <path d="M52.525,36.02L52.022,37.361C51.985,37.456 52.016,37.565 52.098,37.626L52.688,38.076C52.771,38.126 52.876,38.126 52.96,38.076L54.124,37.248C54.204,37.195 54.311,37.205 54.381,37.271L54.872,37.758C54.937,37.829 54.945,37.936 54.891,38.015L54.06,39.179C54,39.261 54.002,39.372 54.063,39.451L54.517,40.041C54.584,40.114 54.686,40.143 54.782,40.117L56.116,39.614C56.208,39.582 56.31,39.618 56.361,39.701L56.705,40.298C56.752,40.382 56.733,40.489 56.66,40.551L55.556,41.462C55.477,41.525 55.45,41.634 55.488,41.727L55.772,42.411C55.81,42.498 55.912,42.562 56.006,42.551L57.431,42.415C57.527,42.409 57.615,42.47 57.643,42.562L57.82,43.227C57.844,43.322 57.796,43.421 57.707,43.462L56.407,44.051C56.315,44.092 56.261,44.19 56.274,44.289L56.373,45.026C56.395,45.122 56.467,45.197 56.562,45.223L57.972,45.457C58.067,45.475 58.138,45.557 58.142,45.654L58.142,46.345C58.139,46.443 58.068,46.526 57.972,46.542L56.566,46.776C56.466,46.792 56.389,46.873 56.377,46.973L56.278,47.71C56.276,47.806 56.327,47.896 56.411,47.944L57.711,48.538C57.799,48.579 57.846,48.677 57.824,48.772L57.643,49.437C57.616,49.531 57.528,49.594 57.431,49.588L56.01,49.449C55.91,49.438 55.814,49.495 55.776,49.588L55.492,50.272C55.463,50.366 55.488,50.468 55.556,50.537L56.66,51.444C56.736,51.505 56.755,51.618 56.705,51.701L56.361,52.298C56.31,52.381 56.208,52.417 56.116,52.385L54.778,51.883C54.684,51.847 54.577,51.878 54.517,51.958L54.063,52.548C54.013,52.631 54.013,52.736 54.063,52.82L54.891,53.984C54.944,54.064 54.934,54.171 54.868,54.241L54.381,54.732C54.31,54.797 54.203,54.805 54.124,54.751L52.96,53.92C52.879,53.861 52.767,53.862 52.688,53.924L52.098,54.377C52.025,54.444 51.996,54.546 52.022,54.642L52.525,55.976C52.557,56.068 52.521,56.17 52.438,56.222L51.841,56.562C51.758,56.609 51.652,56.592 51.588,56.52L50.681,55.417C50.618,55.338 50.509,55.31 50.416,55.348L49.728,55.632C49.642,55.678 49.588,55.768 49.588,55.866L49.724,57.287C49.733,57.384 49.673,57.473 49.581,57.503L48.912,57.681C48.818,57.704 48.719,57.658 48.677,57.571L48.088,56.267C48.047,56.175 47.949,56.121 47.85,56.135L47.113,56.233C47.017,56.255 46.942,56.328 46.916,56.422L46.682,57.832C46.664,57.927 46.582,57.998 46.485,58.002L45.797,58.002C45.7,58 45.617,57.928 45.601,57.832L45.363,56.426C45.347,56.327 45.269,56.25 45.17,56.237L44.433,56.138C44.335,56.135 44.244,56.186 44.195,56.271L43.601,57.571C43.56,57.659 43.462,57.706 43.367,57.684L42.702,57.503C42.61,57.475 42.549,57.387 42.555,57.291L42.694,55.866C42.703,55.767 42.646,55.673 42.555,55.636L41.867,55.348C41.773,55.32 41.671,55.347 41.602,55.417L40.695,56.52C40.631,56.594 40.523,56.613 40.438,56.566L39.845,56.222C39.76,56.172 39.722,56.069 39.754,55.976L40.257,54.638C40.292,54.544 40.261,54.438 40.181,54.377L39.591,53.924C39.508,53.873 39.403,53.873 39.319,53.924L38.155,54.751C38.075,54.804 37.968,54.795 37.898,54.729L37.411,54.241C37.344,54.171 37.335,54.064 37.388,53.984L38.219,52.824C38.279,52.742 38.277,52.631 38.216,52.552L37.762,51.958C37.696,51.887 37.595,51.858 37.501,51.883L36.163,52.385C36.071,52.417 35.969,52.381 35.918,52.298L35.577,51.701C35.531,51.617 35.55,51.511 35.623,51.448L36.726,50.541C36.804,50.477 36.83,50.369 36.791,50.276L36.507,49.588C36.461,49.502 36.371,49.448 36.273,49.449L34.852,49.588C34.755,49.594 34.666,49.531 34.64,49.437L34.459,48.772C34.435,48.677 34.483,48.578 34.572,48.538L35.872,47.948C35.964,47.907 36.018,47.81 36.004,47.71L35.906,46.973C35.884,46.878 35.812,46.802 35.717,46.776L34.307,46.542C34.214,46.523 34.144,46.441 34.141,46.345L34.141,45.658C34.141,45.559 34.217,45.472 34.307,45.457L35.717,45.223C35.816,45.207 35.893,45.129 35.906,45.03L36.001,44.293C36.004,44.196 35.953,44.104 35.868,44.055L34.568,43.462C34.482,43.419 34.436,43.321 34.459,43.227L34.636,42.562C34.664,42.469 34.755,42.407 34.852,42.415L36.273,42.555C36.372,42.564 36.466,42.507 36.503,42.415L36.791,41.727C36.819,41.633 36.792,41.531 36.723,41.462L35.619,40.555C35.546,40.491 35.527,40.383 35.574,40.298L35.918,39.705C35.968,39.621 36.071,39.582 36.163,39.614L37.505,40.117C37.592,40.151 37.705,40.117 37.762,40.041L38.216,39.451C38.267,39.369 38.268,39.264 38.219,39.179L37.388,38.015C37.335,37.935 37.344,37.828 37.411,37.758L37.898,37.271C37.968,37.205 38.075,37.195 38.155,37.248L39.319,38.079C39.4,38.139 39.512,38.137 39.591,38.076L40.181,37.622C40.252,37.556 40.281,37.455 40.257,37.361L39.754,36.023C39.724,35.933 39.76,35.832 39.841,35.781L40.438,35.434C40.523,35.385 40.632,35.404 40.695,35.479L41.602,36.587C41.666,36.664 41.774,36.69 41.867,36.651L42.551,36.367C42.637,36.321 42.691,36.231 42.691,36.133L42.555,34.712C42.547,34.615 42.609,34.524 42.702,34.496L43.367,34.319C43.462,34.295 43.561,34.343 43.601,34.432L44.195,35.732C44.236,35.824 44.333,35.878 44.433,35.865L45.166,35.766C45.262,35.745 45.337,35.672 45.363,35.577L45.597,34.168C45.616,34.074 45.698,34.005 45.794,34.001L46.482,34.001C46.58,34.001 46.667,34.077 46.682,34.168L46.916,35.577C46.932,35.677 47.013,35.754 47.113,35.766L47.85,35.861C47.947,35.864 48.039,35.813 48.088,35.729L48.677,34.428C48.72,34.342 48.818,34.296 48.912,34.319L49.577,34.496C49.672,34.523 49.735,34.614 49.728,34.712L49.588,36.133C49.579,36.232 49.636,36.326 49.728,36.364L50.412,36.651C50.506,36.679 50.608,36.653 50.677,36.583L51.584,35.479C51.648,35.406 51.756,35.387 51.841,35.434L52.438,35.778C52.521,35.829 52.557,35.932 52.525,36.023L52.525,36.02ZM50.242,38.877C48.388,37.803 46.185,37.498 44.108,38.027C43.722,38.125 43.945,38.072 43.945,38.072C43.59,38.174 43.344,38.501 43.344,38.871C43.344,39.024 43.386,39.174 43.465,39.304C43.545,39.434 43.31,39.017 43.481,39.327L45.892,43.726C46.33,44.431 47.092,44.872 47.922,44.902L53.273,44.788C53.602,44.785 53.273,44.788 53.273,44.788C53.278,44.788 53.282,44.788 53.287,44.788C53.722,44.788 54.081,44.43 54.081,43.995C54.081,43.928 54.072,43.862 54.056,43.798C53.481,41.721 52.11,39.952 50.242,38.877M50.11,53.194C51.985,52.156 53.381,50.424 53.995,48.371C54.109,47.993 54.041,48.213 54.041,48.213C54.06,48.142 54.069,48.07 54.069,47.997C54.069,47.541 53.694,47.166 53.238,47.166C53.236,47.166 53.205,47.166 53.205,47.166L48.19,46.965C47.36,46.979 46.589,47.406 46.138,48.103L43.481,52.744C43.314,53.032 43.481,52.744 43.481,52.744C43.401,52.871 43.358,53.018 43.358,53.167C43.358,53.517 43.589,53.827 43.923,53.927C44.257,54.028 43.605,53.84 43.923,53.927C46.001,54.506 48.225,54.242 50.11,53.194M40.374,51.886C40.521,52.025 40.716,52.103 40.918,52.103C41.213,52.103 41.484,51.939 41.621,51.678C41.758,51.418 41.458,51.966 41.621,51.678L44.312,47.052C44.69,46.314 44.675,45.434 44.274,44.709L41.591,40.464C41.402,40.166 41.576,40.442 41.576,40.442C41.428,40.183 41.152,40.023 40.854,40.023C40.634,40.023 40.424,40.11 40.268,40.264C40.112,40.419 40.423,40.094 40.151,40.385C38.682,41.944 37.881,44.019 37.921,46.16C37.956,48.316 38.839,50.373 40.377,51.883L40.374,51.886Z" style="fill:rgb(230,230,230);fill-rule:nonzero;"/>
        </g>
    </g>
</svg>
