<?xml version="1.0" encoding="UTF-8" standalone="no"?>
<!DOCTYPE svg PUBLIC "-//W3C//DTD SVG 1.1//EN" "http://www.w3.org/Graphics/SVG/1.1/DTD/svg11.dtd">
<svg width="100%" height="100%" viewBox="0 0 64 64" version="1.1" xmlns="http://www.w3.org/2000/svg" xmlns:xlink="http://www.w3.org/1999/xlink" xml:space="preserve" xmlns:serif="http://www.serif.com/" style="fill-rule:evenodd;clip-rule:evenodd;stroke-linejoin:round;stroke-miterlimit:2;">
    <path d="M40.983,34.922L37.996,34.944L37.953,28.97L40.939,28.949C44.201,28.925 46.872,26.236 46.872,22.974C46.872,19.697 44.175,17 40.897,17C37.62,17 34.923,19.697 34.923,22.974L34.923,23.017L34.945,26.004L28.97,26.047L28.949,23.061C28.925,19.799 26.236,17.128 22.974,17.128C19.697,17.128 17,19.825 17,23.103C17,26.38 19.697,29.077 22.974,29.077L23.018,29.077L26.005,29.055L26.048,35.03L23.061,35.051C19.8,35.075 17.129,37.764 17.129,41.026C17.129,44.303 19.826,47 23.104,47C26.381,47 29.078,44.303 29.078,41.026L29.078,40.982L29.056,37.995L35.031,37.952L35.051,40.931L35.051,40.939C35.075,44.2 37.764,46.871 41.026,46.871C44.303,46.871 47,44.174 47,40.896C47,37.619 44.303,34.922 41.026,34.922L40.983,34.922M40.875,19.988C42.495,20.015 43.813,21.354 43.813,22.975C43.813,24.578 42.521,25.911 40.918,25.961L37.931,25.983L37.91,22.996L37.91,22.974C37.91,21.344 39.245,20 40.875,19.988M19.989,23.125L19.989,23.104C19.989,21.465 21.337,20.116 22.976,20.116C24.606,20.116 25.951,21.452 25.963,23.082L25.984,26.069L22.997,26.09C21.358,26.102 20.001,24.764 19.989,23.125M23.126,44.011C21.506,43.984 20.188,42.645 20.188,41.024C20.188,39.421 21.48,38.088 23.083,38.038L26.07,38.016L26.091,41.003L26.091,41.026C26.091,42.656 24.756,44 23.126,44.012L23.126,44.011ZM29.036,35.008L28.993,29.034L34.966,28.991L35.009,34.965L29.036,35.008ZM41.048,43.882C39.41,43.894 38.051,42.556 38.039,40.917L38.018,37.93L41.004,37.909C42.624,37.936 43.942,39.275 43.942,40.896C43.942,42.499 42.651,43.831 41.048,43.882" style="fill-rule:nonzero;"/>
</svg>
