<?xml version="1.0" encoding="UTF-8" standalone="no"?>
<!DOCTYPE svg PUBLIC "-//W3C//DTD SVG 1.1//EN" "http://www.w3.org/Graphics/SVG/1.1/DTD/svg11.dtd">
<svg width="100%" height="100%" viewBox="0 0 64 64" version="1.1" xmlns="http://www.w3.org/2000/svg" xmlns:xlink="http://www.w3.org/1999/xlink" xml:space="preserve" xmlns:serif="http://www.serif.com/" style="fill-rule:evenodd;clip-rule:evenodd;stroke-linejoin:round;stroke-miterlimit:2;">
    <g transform="matrix(2.52457,0,0,1.58159,-19.5482,-1.56556)">
        <rect x="7.743" y="0.99" width="25.351" height="40.466" style="fill:rgb(0,0,0);"/>
    </g>
    <g transform="matrix(1.09369,0,0,1.09369,-2.99816,-2.99816)">
        <path d="M41.582,35.117L38.396,35.14L38.35,28.768L41.536,28.745C45.015,28.72 47.864,25.851 47.864,22.372C47.864,18.876 44.987,15.999 41.491,15.999C37.995,15.999 35.118,18.876 35.118,22.372C35.118,22.387 35.118,22.403 35.118,22.418L35.141,25.604L28.768,25.65L28.745,22.464C28.72,18.985 25.851,16.136 22.372,16.136C18.876,16.136 15.999,19.013 15.999,22.509C15.999,26.005 18.876,28.882 22.372,28.882C22.388,28.882 22.403,28.882 22.419,28.882L25.605,28.859L25.651,35.232L22.465,35.255C18.986,35.28 16.137,38.149 16.137,41.628C16.137,45.124 19.014,48.001 22.51,48.001C26.006,48.001 28.883,45.124 28.883,41.628C28.883,41.612 28.883,41.597 28.883,41.581L28.86,38.395L35.233,38.349L35.255,41.527L35.255,41.535C35.28,45.014 38.149,47.863 41.628,47.863C45.124,47.863 48.001,44.986 48.001,41.49C48.001,37.994 45.124,35.117 41.628,35.117C41.613,35.117 41.597,35.117 41.582,35.117M41.467,19.186C43.195,19.215 44.601,20.644 44.601,22.373C44.601,24.083 43.223,25.505 41.513,25.558L38.327,25.581L38.304,22.395C38.304,22.387 38.304,22.38 38.304,22.372C38.304,20.633 39.728,19.199 41.467,19.186M19.187,22.533C19.187,22.525 19.187,22.518 19.187,22.51C19.187,20.762 20.625,19.323 22.374,19.323C24.113,19.323 25.547,20.748 25.56,22.487L25.582,25.673L22.396,25.696C20.648,25.708 19.2,24.281 19.187,22.533M22.534,44.813C20.806,44.784 19.4,43.355 19.4,41.626C19.4,39.916 20.778,38.494 22.488,38.441L25.674,38.418L25.697,41.604C25.697,41.612 25.697,41.62 25.697,41.628C25.697,43.367 24.273,44.801 22.534,44.814L22.534,44.813ZM28.838,35.209L28.792,28.836L35.164,28.79L35.21,35.163L28.838,35.209ZM41.652,44.675C39.904,44.688 38.455,43.26 38.442,41.512L38.42,38.326L41.605,38.303C43.333,38.332 44.739,39.761 44.739,41.49C44.739,43.2 43.362,44.621 41.652,44.675" style="fill:white;fill-rule:nonzero;"/>
    </g>
</svg>
