<?xml version="1.0" encoding="UTF-8" standalone="no"?>
<!DOCTYPE svg PUBLIC "-//W3C//DTD SVG 1.1//EN" "http://www.w3.org/Graphics/SVG/1.1/DTD/svg11.dtd">
<svg width="100%" height="100%" viewBox="0 0 10 9" version="1.1" xmlns="http://www.w3.org/2000/svg" xmlns:xlink="http://www.w3.org/1999/xlink" xml:space="preserve" xmlns:serif="http://www.serif.com/" style="fill-rule:evenodd;clip-rule:evenodd;stroke-linejoin:round;stroke-miterlimit:2;">
    <path d="M6.42,4.458C6.42,4.458 5.041,3.249 6.389,2.028C6.389,2.028 7.432,2.167 7.713,3.173C7.713,3.173 8.641,2.41 9.463,3.207C9.463,3.207 9.606,4.987 7.834,4.844C7.834,4.844 6.906,8.721 3.387,8.721C-0.131,8.721 0.001,5.631 0.001,4.458L6.42,4.458ZM2.091,5.178C1.743,5.178 1.461,5.46 1.461,5.807C1.461,6.155 1.743,6.437 2.091,6.437C2.438,6.437 2.72,6.155 2.72,5.807C2.72,5.46 2.438,5.178 2.091,5.178Z" style="fill:rgb(1,105,255);"/>
    <rect x="1.233" y="0" width="3.5" height="3.5" style="fill:rgb(210,210,210);"/>
</svg>
