<?xml version="1.0" encoding="UTF-8" standalone="no"?>
<!DOCTYPE svg PUBLIC "-//W3C//DTD SVG 1.1//EN" "http://www.w3.org/Graphics/SVG/1.1/DTD/svg11.dtd">
<svg width="100%" height="100%" viewBox="0 0 64 64" version="1.1" xmlns="http://www.w3.org/2000/svg" xmlns:xlink="http://www.w3.org/1999/xlink" xml:space="preserve" xmlns:serif="http://www.serif.com/" style="fill-rule:evenodd;clip-rule:evenodd;stroke-linejoin:round;stroke-miterlimit:2;">
    <g transform="matrix(0.251081,0,0,0.251081,-27.4246,-23.7399)">
        <path d="M191.108,217.73L109.226,217.73L121.515,195.69L178.826,195.69L191.108,217.73ZM191.108,226.902L178.826,248.942L121.515,248.942L109.226,226.902L191.108,226.902ZM364.124,222.382L351.478,244.885L335.933,217.73L242.808,217.73L255.098,195.69L349.249,195.69L364.124,222.382ZM331.089,226.902L343.372,248.942L255.098,248.942L242.808,226.902L331.089,226.902ZM253.344,262.391L294.285,333.303L269.054,333.68L240.398,284.048L253.344,262.391ZM261.288,257.805L286.516,257.422L315.171,307.054L302.229,328.717L261.288,257.805ZM170.865,110.229L196.676,109.929L180.932,136.969L227.494,217.618L202.262,217.995L155.187,136.457L170.865,110.229ZM191.297,136.578L204.243,114.921L248.38,191.368L235.438,213.031L191.297,136.578ZM261.148,186.097L302.089,115.185L315.031,136.848L286.376,186.48L261.148,186.097ZM253.204,181.511L240.258,159.854L268.913,110.222L294.145,110.599L253.204,181.511ZM170.611,333.607L157.446,311.404L188.735,311.519L235.298,230.87L248.24,252.533L201.164,334.071L170.611,333.607ZM183.214,302.738L157.985,302.355L202.122,225.907L227.354,226.284L183.214,302.738Z" style="fill:rgb(32,79,245);"/>
    </g>
</svg>
