<?xml version="1.0" encoding="UTF-8" standalone="no"?>
<!DOCTYPE svg PUBLIC "-//W3C//DTD SVG 1.1//EN" "http://www.w3.org/Graphics/SVG/1.1/DTD/svg11.dtd">
<svg width="100%" height="100%" viewBox="0 0 38 40" version="1.1" xmlns="http://www.w3.org/2000/svg" xmlns:xlink="http://www.w3.org/1999/xlink" xml:space="preserve" xmlns:serif="http://www.serif.com/" style="fill-rule:evenodd;clip-rule:evenodd;stroke-linejoin:round;stroke-miterlimit:2;">
    <g id="g">
        <g id="path">
            <g id="path17-fill" serif:id="path17 fill">
                <path id="path8_fill" d="M18.696,33.512C10.684,33.512 3.641,30.637 0,26.39C1.413,30.21 3.962,33.506 7.305,35.834C10.647,38.162 14.623,39.41 18.696,39.41C22.77,39.41 26.745,38.162 30.088,35.834C33.43,33.506 35.98,30.21 37.393,26.39C33.76,30.637 26.744,33.512 18.696,33.512Z" style="fill:rgb(255,111,0);fill-rule:nonzero;"/>
            </g>
        </g>
        <g id="path1" serif:id="path">
            <g id="path18-fill" serif:id="path18 fill">
                <path id="path9_fill" d="M18.696,5.897C26.709,5.897 33.751,8.773 37.393,13.02C35.98,9.199 33.43,5.903 30.088,3.576C26.745,1.248 22.77,0 18.696,0C14.623,0 10.647,1.248 7.305,3.576C3.962,5.903 1.413,9.199 0,13.02C3.641,8.764 10.648,5.897 18.696,5.897Z" style="fill:rgb(255,111,0);fill-rule:nonzero;"/>
            </g>
        </g>
    </g>
</svg>
