<?xml version="1.0" encoding="UTF-8" standalone="no"?>
<!DOCTYPE svg PUBLIC "-//W3C//DTD SVG 1.1//EN" "http://www.w3.org/Graphics/SVG/1.1/DTD/svg11.dtd">
<svg width="100%" height="100%" viewBox="0 0 1154 225" version="1.1" xmlns="http://www.w3.org/2000/svg" xmlns:xlink="http://www.w3.org/1999/xlink" xml:space="preserve" xmlns:serif="http://www.serif.com/" style="fill:#24292f;fill-rule:evenodd;clip-rule:evenodd;stroke-linejoin:round;stroke-miterlimit:2;">
    <g>
        <g style="fill-rule:nonzero;">
            <path d="M341.689,50.94L400.2,50.94C405.673,50.94 410.622,51.755 415.046,53.385C419.471,55.015 423.226,57.256 426.312,60.109C429.398,62.962 431.785,66.31 433.473,70.152C435.161,73.995 436.006,78.07 436.006,82.378C436.006,87.618 435.103,91.927 433.298,95.303C431.494,98.68 429.485,101.358 427.273,103.338C424.711,105.666 421.8,107.413 418.54,108.577L418.54,109.451C422.731,110.382 426.516,112.012 429.893,114.341C432.687,116.321 435.278,119.232 437.665,123.074C440.052,126.917 441.245,131.982 441.245,138.27C441.245,143.277 440.343,147.905 438.538,152.155C436.733,156.405 434.055,160.102 430.504,163.246C426.952,166.39 422.557,168.835 417.317,170.582C412.077,172.329 406.08,173.202 399.327,173.202L341.689,173.202L341.689,50.94ZM399.327,158.356C408.06,158.356 414.61,156.434 418.976,152.592C423.343,148.749 425.526,143.975 425.526,138.27C425.526,132.098 423.343,127.062 418.976,123.162C414.61,119.261 408.06,117.311 399.327,117.311L357.408,117.311L357.408,158.356L399.327,158.356ZM399.327,102.464C405.964,102.464 411.117,100.718 414.784,97.225C418.452,93.731 420.286,89.365 420.286,84.125C420.286,78.885 418.452,74.519 414.784,71.025C411.117,67.532 405.964,65.786 399.327,65.786L357.408,65.786L357.408,102.464L399.327,102.464Z"></path>
            <path d="M521.589,176.695C512.39,176.695 503.89,175.094 496.089,171.892C488.287,168.69 481.563,164.207 475.916,158.443C470.268,152.679 465.843,145.867 462.641,138.008C459.439,130.148 457.838,121.502 457.838,112.071C457.838,102.639 459.439,93.993 462.641,86.134C465.843,78.274 470.268,71.462 475.916,65.698C481.563,59.935 488.287,55.452 496.089,52.249C503.89,49.047 512.39,47.446 521.589,47.446C527.644,47.446 533.175,48.087 538.182,49.368C543.189,50.648 547.672,52.308 551.631,54.345C555.59,56.383 559.083,58.712 562.11,61.332C565.138,63.952 567.758,66.601 569.97,69.279C575.21,75.683 579.169,82.961 581.847,91.111L566.128,91.111C563.799,85.755 560.655,80.981 556.696,76.789C554.949,75.043 552.941,73.296 550.67,71.549C548.4,69.803 545.809,68.231 542.898,66.834C539.987,65.436 536.756,64.33 533.204,63.515C529.653,62.7 525.781,62.292 521.589,62.292C514.603,62.292 508.17,63.486 502.289,65.873C496.409,68.26 491.344,71.637 487.094,76.003C482.844,80.37 479.525,85.61 477.138,91.723C474.751,97.836 473.558,104.619 473.558,112.071C473.558,119.523 474.751,126.306 477.138,132.419C479.525,138.532 482.844,143.772 487.094,148.138C491.344,152.505 496.409,155.881 502.289,158.268C508.17,160.655 514.603,161.849 521.589,161.849C527.877,161.849 533.67,160.83 538.968,158.792C544.266,156.755 548.924,154.018 552.941,150.583C556.958,147.148 560.218,143.16 562.722,138.619C565.225,134.078 566.943,129.304 567.874,124.297L524.99,124.297L524.99,109.451L583.594,109.451L583.594,124.297C581.847,131.982 579.198,139.027 575.647,145.431C572.095,151.835 567.7,157.337 562.46,161.936C557.22,166.536 551.165,170.145 544.295,172.765C537.425,175.385 529.857,176.695 521.589,176.695Z"></path>
            <path d="M606.861,50.94L658.386,50.94C665.372,50.94 671.66,51.958 677.249,53.996C682.838,56.034 687.612,58.857 691.571,62.467C695.53,66.077 698.557,70.327 700.653,75.217C702.749,80.108 703.797,85.406 703.797,91.111C703.797,96.817 702.749,102.115 700.653,107.006C698.557,111.896 695.53,116.146 691.571,119.756C687.612,123.365 682.838,126.189 677.249,128.227C671.66,130.264 665.372,131.283 658.386,131.283L622.58,131.283L622.58,173.202L606.861,173.202L606.861,50.94ZM658.386,116.437C668.05,116.437 675.415,114.079 680.48,109.363C685.545,104.648 688.078,98.564 688.078,91.111C688.078,83.659 685.545,77.575 680.48,72.859C675.415,68.144 668.05,65.786 658.386,65.786L622.58,65.786L622.58,116.437L658.386,116.437Z"></path>
            <path d="M723.883,50.94L764.055,50.94C773.254,50.94 781.754,52.511 789.556,55.655C797.357,58.799 804.111,63.108 809.816,68.58C815.522,74.053 819.946,80.515 823.09,87.968C826.234,95.42 827.806,103.454 827.806,112.071C827.806,120.687 826.234,128.722 823.09,136.174C819.946,143.626 815.522,150.088 809.816,155.561C804.111,161.034 797.357,165.342 789.556,168.486C781.754,171.63 773.254,173.202 764.055,173.202L723.883,173.202L723.883,50.94ZM764.055,158.356C771.274,158.356 777.824,157.22 783.704,154.95C789.585,152.679 794.621,149.477 798.813,145.344C803.004,141.21 806.265,136.319 808.594,130.672C810.922,125.025 812.087,118.824 812.087,112.071C812.087,105.317 810.922,99.117 808.594,93.469C806.265,87.822 803.004,82.932 798.813,78.798C794.621,74.664 789.585,71.462 783.704,69.192C777.824,66.921 771.274,65.786 764.055,65.786L739.603,65.786L739.603,158.356L764.055,158.356Z"></path>
            <path d="M867.105,50.94L915.136,50.94L946.575,173.202L930.856,173.202L921.25,137.396L860.992,137.396L851.385,173.202L835.666,173.202L867.105,50.94ZM917.756,122.55L902.91,65.786L879.331,65.786L864.485,122.55L917.756,122.55Z"></path>
            <path d="M986.747,65.786L944.829,65.786L944.829,50.94L1044.38,50.94L1044.38,65.786L1002.47,65.786L1002.47,173.202L986.747,173.202L986.747,65.786Z"></path>
            <path d="M1074.08,50.94L1122.11,50.94L1153.55,173.202L1137.83,173.202L1128.22,137.396L1067.96,137.396L1058.36,173.202L1042.64,173.202L1074.08,50.94ZM1124.73,122.55L1109.88,65.786L1086.3,65.786L1071.46,122.55L1124.73,122.55Z"></path>
        </g>
        <path d="M81.882,107.8L-0,107.8L12.289,85.761L69.6,85.761L81.882,107.8ZM81.882,116.973L69.6,139.013L12.289,139.013L-0,116.973L81.882,116.973ZM254.898,112.453L242.252,134.955L226.707,107.8L133.582,107.8L145.872,85.761L240.023,85.761L254.898,112.453ZM221.863,116.973L234.146,139.013L145.872,139.013L133.582,116.973L221.863,116.973ZM144.118,152.462L185.059,223.374L159.828,223.751L131.172,174.119L144.118,152.462ZM152.062,147.876L177.29,147.493L205.945,197.125L193.003,218.788L152.062,147.876ZM61.639,0.3L87.45,0L71.706,27.04L118.268,107.688L93.036,108.065L45.961,26.528L61.639,0.3ZM82.071,26.648L95.017,4.992L139.154,81.439L126.212,103.102L82.071,26.648ZM151.922,76.168L192.863,5.256L205.805,26.919L177.15,76.551L151.922,76.168ZM143.978,71.581L131.032,49.925L159.687,0.292L184.919,0.67L143.978,71.581ZM61.385,223.677L48.22,201.474L79.509,201.589L126.072,120.941L139.014,142.604L91.938,224.141L61.385,223.677ZM73.988,192.809L48.759,192.426L92.896,115.978L118.128,116.355L73.988,192.809Z" style="fill:#204ff5"></path>
    </g>
</svg>
