<?xml version="1.0" encoding="UTF-8"?>
<!DOCTYPE svg PUBLIC "-//W3C//DTD SVG 1.1//EN" "http://www.w3.org/Graphics/SVG/1.1/DTD/svg11.dtd">
<svg xmlns="http://www.w3.org/2000/svg">
	<symbol id="shape-1" viewBox="0 0 20 20">
		<rect x="0" y="0" width="20" height="20" style="fill:rgb(0,215,210);"/>
        <path d="M20,0L20,20L0,20C-0,8.954 8.954,0 20,0Z" style="fill:rgb(160,242,239);"/>
        <path d="M20,6.667L20,20L6.667,20C6.667,12.636 12.636,6.667 20,6.667Z" style="fill:rgb(0,215,210);"/>
        <path d="M20,13.333L20,20L13.333,20C13.333,16.318 16.318,13.333 20,13.333Z" style="fill:rgb(1,105,255);"/>
	</symbol>
    <symbol id="shape-2" viewBox="0 0 20 20">
        <rect x="0" y="0" width="20" height="20" style="fill:rgb(160,242,239);"/>
        <rect x="10" y="0" width="10" height="10" style="fill:rgb(1,105,255);"/>
        <rect x="0" y="10" width="10" height="10" style="fill:rgb(1,105,255);"/>
	</symbol>
    <symbol id="shape-3" viewBox="0 0 20 20">
        <rect x="0" y="0" width="20" height="20" style="fill:rgb(160,242,239);"/>
        <path d="M20,-0L20,20L10,10L20,-0Z" style="fill:rgb(0,215,210);"/>
        <path d="M0,0L0,20L10,10L0,0Z" style="fill:rgb(1,105,255);"/>
	</symbol>
    <symbol id="shape-4" viewBox="0 0 20 20">
        <rect x="0" y="0" width="20" height="20" style="fill:rgb(160,242,239);"/>
        <path d="M20,10L0,10L10,20L20,10Z" style="fill:rgb(0,215,210);"/>
        <path d="M20,0L0,0L10,10L20,0Z" style="fill:rgb(1,105,255);"/>
	</symbol>
    <symbol id="shape-5" viewBox="0 0 20 20">
        <rect x="0" y="0" width="20" height="20" style="fill:rgb(160,242,239);"/>
        <path d="M0,10L20,10C20,4.477 15.523,0 10,0C4.477,0 0,4.477 0,10Z" style="fill:rgb(0,215,210);"/>
        <path d="M0,20L20,20C20,14.477 15.523,10 10,10C4.477,10 0,14.477 0,20Z" style="fill:rgb(1,105,255);"/>
	</symbol>
</svg>