<?xml version="1.0" encoding="UTF-8" standalone="no"?>
<!DOCTYPE svg PUBLIC "-//W3C//DTD SVG 1.1//EN" "http://www.w3.org/Graphics/SVG/1.1/DTD/svg11.dtd">
<svg width="100%" height="100%" viewBox="0 0 491 426" version="1.1" xmlns="http://www.w3.org/2000/svg" xmlns:xlink="http://www.w3.org/1999/xlink" xml:space="preserve" xmlns:serif="http://www.serif.com/" style="fill-rule:evenodd;clip-rule:evenodd;stroke-linejoin:round;stroke-miterlimit:2;">
    <g>
        <circle cx="99.26" cy="200.793" r="99.26" style="fill:rgb(237,237,237);fill-opacity:0.75;"/>
        <path d="M130.284,146.428L82.576,190.294L55.914,170.197L44.895,176.611L71.176,200.761L44.895,224.911L55.914,231.343L82.576,211.247L130.284,255.094L153.559,243.79L153.559,157.733L130.284,146.428ZM130.284,175.279L130.284,226.241L96.466,200.759L130.284,175.279Z" style="fill:rgb(1,103,255);fill-rule:nonzero;"/>
    </g>
    <g>
        <circle cx="246.707" cy="356.495" r="69.358" style="fill:rgb(237,237,237);fill-opacity:0.75;"/>
        <path d="M286.22,334.605L286.271,353.312L264.486,340.758L264.486,350.207L275.345,356.394L275.407,372.667L264.486,366.363L264.486,390.149L250.027,398.518L250.027,313.979L286.22,334.605ZM206.655,334.605L242.848,313.979L242.848,398.518L228.388,390.149L228.388,340.758L206.604,353.312L206.655,334.605Z" style="fill:rgb(1,103,255);"/>
    </g>
    <g>
        <circle cx="359.122" cy="131.265" r="131.265" style="fill:rgb(237,237,237);fill-opacity:0.75;"/>
        <path id="path" d="M357.669,195.821C396.12,195.821 429.64,182.085 446.997,161.794C440.246,180.045 428.063,195.792 412.096,206.914C396.125,218.037 377.134,223.999 357.669,223.999C338.21,223.999 319.214,218.037 303.247,206.914C287.276,195.792 275.097,180.045 268.347,161.794C285.742,182.085 319.391,195.821 357.669,195.821ZM357.669,63.886C319.219,63.886 285.742,77.583 268.347,97.917C275.097,79.662 287.276,63.915 303.247,52.797C319.214,41.675 338.21,35.712 357.669,35.712C377.134,35.712 396.125,41.675 412.096,52.797C428.063,63.915 440.246,79.662 446.997,97.917C429.597,77.626 395.953,63.886 357.669,63.886Z" style="fill:rgb(1,103,255);"/>
    </g>
</svg>
