<?xml version="1.0" encoding="UTF-8" standalone="no"?>
<!DOCTYPE svg PUBLIC "-//W3C//DTD SVG 1.1//EN" "http://www.w3.org/Graphics/SVG/1.1/DTD/svg11.dtd">
<svg width="100%" height="100%" viewBox="0 0 661 185" version="1.1" xmlns="http://www.w3.org/2000/svg" xmlns:xlink="http://www.w3.org/1999/xlink" xml:space="preserve" xmlns:serif="http://www.serif.com/" style="fill-rule:evenodd;clip-rule:evenodd;stroke-linejoin:round;stroke-miterlimit:2;">
    <g transform="matrix(1,0,0,1,-268.666,-331.781)">
        <g transform="matrix(0.95624,0,0,0.95624,268.666,331.781)">
            <path d="M275.859,150.626C294.293,150.626 310.442,141.337 318.873,127.047L301.867,117.187C297.152,125.904 287.291,131.334 275.859,131.334C256.281,131.334 243.42,117.758 243.42,98.609C243.42,79.317 256.281,65.742 275.859,65.742C287.291,65.742 297.009,71.172 301.867,80.032L318.873,70.172C310.299,55.881 294.151,46.592 275.859,46.592C245.563,46.592 223.842,69.314 223.842,98.609C223.842,127.762 245.563,150.626 275.859,150.626Z" style="fill-rule:nonzero;"/>
            <rect x="331.305" y="44.306" width="18.435" height="104.32"/>
            <path d="M382.179,120.474L436.054,120.474C436.482,118.044 436.768,115.615 436.768,112.9C436.768,91.893 421.763,75.173 400.614,75.173C378.178,75.173 362.887,91.607 362.887,112.9C362.887,134.192 378.035,150.626 402.043,150.626C415.761,150.626 426.479,145.053 433.196,135.335L418.334,126.761C415.19,130.905 409.474,133.906 402.328,133.906C392.611,133.906 384.751,129.905 382.179,120.474ZM381.893,106.183C384.037,97.037 390.753,91.75 400.614,91.75C408.33,91.75 416.047,95.894 418.334,106.183L381.893,106.183Z" style="fill-rule:nonzero;"/>
            <path d="M503.361,77.174L503.361,85.605C498.217,79.174 490.5,75.173 480.068,75.173C461.062,75.173 445.342,91.607 445.342,112.9C445.342,134.192 461.062,150.626 480.068,150.626C490.5,150.626 498.217,146.625 503.361,140.194L503.361,148.626L521.796,148.626L521.796,77.174L503.361,77.174ZM483.498,133.049C472.208,133.049 463.777,124.904 463.777,112.9C463.777,100.896 472.208,92.75 483.498,92.75C494.93,92.75 503.361,100.896 503.361,112.9C503.361,124.904 494.93,133.049 483.498,133.049Z" style="fill-rule:nonzero;"/>
            <path d="M556.95,89.463L556.95,77.174L538.515,77.174L538.515,148.626L556.95,148.626L556.95,114.472C556.95,99.467 569.097,95.18 578.671,96.323L578.671,75.745C569.668,75.745 560.665,79.746 556.95,89.463Z" style="fill-rule:nonzero;"/>
            <rect x="589.389" y="44.306" width="18.435" height="104.32"/>
            <path d="M671.273,77.174L655.41,125.189L636.833,77.174L616.684,77.174L645.979,146.339C642.549,155.914 637.405,160.201 627.258,160.058L627.258,177.206C645.407,178.207 657.554,169.204 664.985,148.626L690.993,77.174L671.273,77.174Z" style="fill-rule:nonzero;"/>
        </g>
        <g transform="matrix(0.95624,0,0,0.95624,268.666,331.781)">
            <path d="M0,144.236L0,48.23L0.131,48.003L83.275,0L83.536,0L166.68,48.003L166.811,48.23L166.811,144.236L166.68,144.462L83.536,192.465L83.275,192.465L0.131,144.462L0,144.236ZM83.405,0.227L0.262,144.236L166.549,144.236L83.405,0.227Z"/>
        </g>
    </g>
</svg>
