<?xml version="1.0" encoding="UTF-8" standalone="no"?>
<!DOCTYPE svg PUBLIC "-//W3C//DTD SVG 1.1//EN" "http://www.w3.org/Graphics/SVG/1.1/DTD/svg11.dtd">
<svg width="100%" height="100%" viewBox="0 0 704 166" version="1.1" xmlns="http://www.w3.org/2000/svg" xmlns:xlink="http://www.w3.org/1999/xlink" xml:space="preserve" xmlns:serif="http://www.serif.com/" style="fill-rule:evenodd;clip-rule:evenodd;stroke-linejoin:round;stroke-miterlimit:2;">
    <g>
        <g>
            <path d="M288.68,137.393C307.114,137.393 323.263,128.104 331.694,113.814L314.688,103.954C309.973,112.671 300.112,118.101 288.68,118.101C269.102,118.101 256.241,104.525 256.241,85.376C256.241,66.084 269.102,52.509 288.68,52.509C300.112,52.509 309.83,57.939 314.688,66.799L331.694,56.939C323.12,42.648 306.972,33.359 288.68,33.359C258.384,33.359 236.663,56.081 236.663,85.376C236.663,114.529 258.384,137.393 288.68,137.393Z" style="fill:rgb(20,20,20);fill-rule:nonzero;"/>
            <rect x="344.126" y="31.073" width="18.435" height="104.32" style="fill:rgb(20,20,20);fill-rule:nonzero;"/>
            <path d="M395,107.241L448.875,107.241C449.303,104.811 449.589,102.382 449.589,99.667C449.589,78.66 434.584,61.94 413.435,61.94C390.999,61.94 375.708,78.374 375.708,99.667C375.708,120.959 390.856,137.393 414.864,137.393C428.582,137.393 439.3,131.82 446.017,122.102L431.155,113.528C428.011,117.672 422.295,120.673 415.149,120.673C405.432,120.673 397.572,116.672 395,107.241ZM394.714,92.95C396.858,83.804 403.574,78.517 413.435,78.517C421.151,78.517 428.868,82.661 431.155,92.95L394.714,92.95Z" style="fill:rgb(20,20,20);fill-rule:nonzero;"/>
            <path d="M516.182,63.941L516.182,72.372C511.038,65.941 503.321,61.94 492.889,61.94C473.883,61.94 458.163,78.374 458.163,99.667C458.163,120.959 473.883,137.393 492.889,137.393C503.321,137.393 511.038,133.392 516.182,126.961L516.182,135.393L534.617,135.393L534.617,63.941L516.182,63.941ZM496.319,119.816C485.029,119.816 476.598,111.671 476.598,99.667C476.598,87.663 485.029,79.517 496.319,79.517C507.751,79.517 516.182,87.663 516.182,99.667C516.182,111.671 507.751,119.816 496.319,119.816Z" style="fill:rgb(20,20,20);fill-rule:nonzero;"/>
            <path d="M569.771,76.23L569.771,63.941L551.336,63.941L551.336,135.393L569.771,135.393L569.771,101.239C569.771,86.234 581.918,81.947 591.492,83.09L591.492,62.512C582.489,62.512 573.486,66.513 569.771,76.23Z" style="fill:rgb(20,20,20);fill-rule:nonzero;"/>
            <rect x="602.21" y="31.073" width="18.435" height="104.32" style="fill:rgb(20,20,20);fill-rule:nonzero;"/>
            <path d="M684.094,63.941L668.231,111.956L649.654,63.941L629.505,63.941L658.8,133.106C655.37,142.681 650.226,146.968 640.079,146.825L640.079,163.973C658.228,164.974 670.375,155.971 677.806,135.393L703.814,63.941L684.094,63.941Z" style="fill:rgb(20,20,20);fill-rule:nonzero;"/>
        </g>
        <g>
            <rect x="119.522" y="-0" width="61.91" height="165.72" style="fill:rgb(2,183,255);"/>
            <path d="M119.607,53.998L67.795,165.72L-0,165.72L51.812,53.998L119.607,53.998Z" style="fill:rgb(1,103,255);"/>
        </g>
    </g>
</svg>
